Coordinates
version=1
nRows=8
nColumns=33
inDegrees=yes

Units are S.I. units (second, meters, Newtons, ...)
Angles are in degrees.

endheader
time	ground_thorax_rot_x	ground_thorax_rot_y	ground_thorax_rot_z	ground_thorax_tx	ground_thorax_ty	ground_thorax_tz	clav_prot_r	clav_elev_r	scapula_abduction_r	scapula_elevation_r	scapula_upward_rot_r	scapula_winging_r	shoulder_elv_r	plane_of_elev_r	axial_rot_r	elbow_flexion_r	pro_sup_r	wrist_flex_r	wrist_dev_r	clav_prot_l	clav_elev_l	scapula_abduction_l	scapula_elevation_l	scapula_upward_rot_l	scapula_winging_l	shoulder_elv_l	plane_of_elev_l	axial_rot_l	elbow_flexion_l	pro_sup_l	wrist_flex_l	wrist_dev_l
      3.29000000	     40.84409036	      3.26493017	     12.36968884	   -194.52669548	    845.77720368	    -10.15967783	      5.30579258	     44.53046023	     43.01090864	     44.70456188	      0.02215621	   1329.32774088	   -658.95181455	     16.78195784	   -179.99999979	   1807.43550028	   -102.59089625	     17.52259455	     11.75230501	     10.93910400	    -45.00000000	    -33.56751901	     45.00000000	    -45.00000000	     96.97946838	  -2618.28856350	    145.95134905	    136.67731532	   1089.43319271	   -333.91291363	      9.55676109	    -21.46698751
      3.30000000	     40.96259015	      3.09251345	     12.03392886	   -195.19830155	    847.09668682	    -10.30149690	      5.23464159	     43.88664620	     43.33304427	     44.77173025	      0.81452275	   1328.92262746	   -658.75535363	     16.72130417	   -179.99999979	   1807.50603595	   -101.76774785	     17.70635322	     11.49662813	     11.03778536	    -45.00000000	    -33.61640828	     45.00000000	    -45.00000000	     97.03603816	  -2618.30655913	    145.80028142	    137.07721597	   1089.43227271	   -333.28015439	      9.37737644	    -21.50946590
      3.31000000	     41.02349267	      2.97799683	     11.63521713	   -195.68201860	    848.28558918	    -10.40307104	      5.01636010	     44.05802867	     43.52523168	     44.75617838	      1.40823117	   1328.56655873	   -658.56867283	     16.77794989	   -179.99999979	   1807.56894264	   -100.94145278	     17.68538318	     11.55919876	     11.08304398	    -45.00000000	    -33.70671812	     45.00000000	    -45.00000000	     97.00134180	  -2618.12303642	    145.65952239	    137.15098801	   1089.62477776	   -332.59424113	      9.31063671	    -21.59691663
      3.32000000	     41.01985439	      3.02999351	     11.48692012	   -195.98499835	    849.35468680	    -10.46906979	      4.85659388	     44.20693529	     43.25637033	     44.91813860	      1.90333339	   1328.62303216	   -658.67393413	     16.70029199	   -179.99999979	   1807.61085667	   -100.20057404	     17.83681222	     11.43031933	     11.19574825	    -45.00000000	    -33.88970290	     45.00000000	    -45.00000000	     97.08765130	  -2617.95259913	    145.68009178	    137.09486874	   1089.82879152	   -331.93721990	      9.15185926	    -21.68182537
      3.33000000	     41.00142959	      3.40560524	     11.61375288	   -196.12050691	    850.30983216	    -10.50106609	      4.58213172	     44.46894172	     42.63048279	     45.00000000	      1.81222335	   1329.09171960	   -658.76509564	     16.75499428	   -179.99999979	   1807.57245340	    -99.46073689	     17.84322731	     11.46592993	     11.38698370	    -45.00000000	    -34.14727366	     45.00000000	    -45.00000000	     97.11314940	  -2617.83003575	    145.91985730	    136.77590423	   1089.96837652	   -331.21363133	      9.10502583	    -21.75766210
      3.34000000	     41.08724421	      3.47451857	     11.77751930	   -196.10438608	    851.16040353	    -10.50049171	      4.71488537	     44.53119351	     43.37207158	     45.00000000	      1.21540329	   1328.79650893	   -658.54203079	     16.67190675	   -179.99999979	   1807.32974560	    -98.60446415	     17.95640802	     11.29425163	     11.51974125	    -45.00000000	    -33.93513081	     45.00000000	    -45.00000000	     97.27146499	  -2617.92604087	    146.05082176	    136.32057370	   1089.91466936	   -330.29038916	      8.92331945	    -21.73477665
      3.35000000	     41.15768613	      3.30242788	     11.48838157	   -195.95011978	    851.91010443	    -10.46925343	      4.97528029	     44.62836244	     43.87187509	     45.00000000	      1.54856025	   1328.12964138	   -658.66527588	     16.98890042	   -179.99999979	   1807.41712207	    -97.41227621	     18.06699031	     11.28359021	     11.42360926	    -45.00000000	    -33.84592805	     45.00000000	    -45.00000000	     97.16713358	  -2617.66861761	    145.95249712	    135.92058575	   1090.22266318	   -329.16761115	      8.73319801	    -21.82144892
      3.36000000	     41.10173558	      3.52189925	     11.57014715	   -195.67392679	    852.56337510	    -10.41106278	      4.34493565	     44.41550112	     43.61362565	     45.00000000	      1.83549185	   1328.76505713	   -658.32419113	     16.48210916	   -179.99999979	   1807.19989680	    -96.51258990	     18.22268822	     11.13631566	     11.68784060	    -45.00000000	    -34.11583601	     45.00000000	    -45.00000000	     97.39373408	  -2617.73510636	    145.95170591	    135.97237563	   1090.21909414	   -328.43981798	      8.54968989	    -21.78617731
